<?xml version="1.0" encoding="utf-8"?>
<!-- Generator: Adobe Illustrator 23.0.1, SVG Export Plug-In . SVG Version: 6.00 Build 0)  -->
<svg version="1.1" id="Capa_1" xmlns="http://www.w3.org/2000/svg" xmlns:xlink="http://www.w3.org/1999/xlink" x="0px" y="0px"
	 viewBox="0 0 512 512" style="enable-background:new 0 0 512 512;" xml:space="preserve">
<style type="text/css">
	.st0{opacity:0.8;}
	.st1{fill:#333333;}
</style>
<g class="st0">
	<g>
		<g>
			<path class="st1" d="M325.9,170H186.1c-8.9,0-16.1,7.2-16.1,16.1v139.8c0,8.9,7.2,16.1,16.1,16.1h139.8c8.9,0,16.1-7.2,16.1-16.1
				V186.1C342,177.2,334.8,170,325.9,170z M331.3,325.9c0,3-2.4,5.4-5.4,5.4H186.1c-3,0-5.4-2.4-5.4-5.4V186.1c0-3,2.4-5.4,5.4-5.4
				h139.8c3,0,5.4,2.4,5.4,5.4V325.9z"/>
			<path class="st1" d="M286.7,262.9c-2.1-2.1-5.5-2.1-7.6,0l-12.4,12.4l-23.1-23.1c-2.1-2.1-5.5-2.1-7.6,0l-37.6,37.6
				c-2.1,2.1-2,5.5,0.1,7.6c1,1,2.3,1.5,3.7,1.5h107.5c3,0,5.4-2.4,5.4-5.3c0-1.4-0.6-2.8-1.6-3.8L286.7,262.9z"/>
			<circle class="st1" cx="272.1" cy="229.1" r="16.1"/>
		</g>
	</g>
</g>
</svg>
